<svg width="274.255" height="293.667" viewBox="0 0 205.691 220.25" version="1.2" xmlns:xlink="http://www.w3.org/1999/xlink" xmlns="http://www.w3.org/2000/svg"><defs><symbol overflow="visible" id="c"><path style="stroke:none" d="M2.5-3.953c-.094 0-.234 0-.39.015a2.216 2.216 0 0 0-1.25.579c-.391.39-.657 1-.657 1.765C.203-.578.75.063 1.578.063c.813 0 1.297-.657 1.297-1.375 0-.75-.484-1.266-1.172-1.266a1.17 1.17 0 0 0-.953.453c.078-.64.516-1.234 1.344-1.375.156-.016.297-.031.406-.031Zm-.922 3.61c-.547 0-.844-.485-.86-1.126 0-.093.032-.156.063-.218a.845.845 0 0 1 .766-.485c.484 0 .797.328.797.89 0 .563-.297.938-.75.938zm0 0"/></symbol><symbol overflow="visible" id="d"><path style="stroke:none" d="M1.516.063c.859 0 1.359-.735 1.359-2.047 0-1.25-.484-1.985-1.297-1.985-.797 0-1.36.719-1.36 2.031.016 1.297.532 2 1.298 2zm.015-.407c-.484 0-.797-.61-.781-1.625 0-.984.313-1.593.797-1.593.547 0 .781.64.781 1.593 0 1-.25 1.625-.781 1.625zm0 0"/></symbol><symbol overflow="visible" id="g"><path style="stroke:none" d="M2.5-3.953c-.094 0-.234 0-.39.015a2.216 2.216 0 0 0-1.25.579c-.391.39-.657 1-.657 1.765C.203-.578.75.063 1.578.063c.813 0 1.297-.657 1.297-1.375 0-.75-.484-1.266-1.172-1.266a1.17 1.17 0 0 0-.953.453c.078-.64.516-1.234 1.344-1.375.156-.016.297-.031.406-.031Zm-.922 3.61c-.547 0-.844-.485-.86-1.126 0-.093.032-.156.063-.218a.845.845 0 0 1 .766-.485c.484 0 .797.328.797.89 0 .563-.297.938-.75.938zm0 0"/></symbol><symbol overflow="visible" id="h"><path style="stroke:none" d="M2.594-3.906H.734l-.25 1.875c.141-.016.313-.031.547-.031.766 0 1.11.359 1.11.843 0 .532-.422.86-.922.86-.36 0-.672-.125-.828-.22L.25-.171c.188.125.547.234.969.234.843 0 1.453-.562 1.453-1.328 0-.5-.25-.828-.547-1a1.74 1.74 0 0 0-.844-.218c-.14 0-.234.015-.328.03l.156-1h1.485Zm0 0"/></symbol><symbol overflow="visible" id="k"><path style="stroke:none" d="M.344-3.906v.437H2.25v.016L.562 0h.547l1.688-3.547v-.36Zm0 0"/></symbol><symbol overflow="visible" id="l"><path style="stroke:none" d="M1.516.063c.859 0 1.359-.735 1.359-2.047 0-1.25-.484-1.985-1.297-1.985-.797 0-1.36.719-1.36 2.031.016 1.297.532 2 1.298 2zm.015-.407c-.484 0-.797-.61-.781-1.625 0-.984.313-1.593.797-1.593.547 0 .781.64.781 1.593 0 1-.25 1.625-.781 1.625zm0 0"/></symbol><symbol overflow="visible" id="o"><path style="stroke:none" d="M1.578-3.969C.891-3.969.36-3.547.36-2.922c0 .328.188.672.625.875v.016C.516-1.828.22-1.47.22-.984c0 .578.5 1.046 1.312 1.046.75 0 1.328-.453 1.328-1.125 0-.468-.296-.828-.796-1.015v-.016c.484-.219.656-.578.656-.906 0-.5-.39-.969-1.14-.969zM1.531-.313c-.484 0-.781-.359-.765-.75 0-.359.25-.671.703-.796.515.14.86.375.86.843 0 .407-.313.704-.782.704zm.016-3.28c.469 0 .656.327.656.64 0 .36-.25.594-.594.703-.453-.11-.75-.328-.734-.719 0-.328.234-.625.672-.625zm0 0"/></symbol><symbol overflow="visible" id="p"><path style="stroke:none" d="M1.516.063c.859 0 1.359-.735 1.359-2.047 0-1.25-.484-1.985-1.297-1.985-.797 0-1.36.719-1.36 2.031.016 1.297.532 2 1.298 2zm.015-.407c-.484 0-.797-.61-.781-1.625 0-.984.313-1.593.797-1.593.547 0 .781.64.781 1.593 0 1-.25 1.625-.781 1.625zm0 0"/></symbol><symbol overflow="visible" id="s"><path style="stroke:none" d="M.344-3.906v.437H2.25v.016L.562 0h.547l1.688-3.547v-.36Zm0 0"/></symbol><symbol overflow="visible" id="t"><path style="stroke:none" d="M2.594-3.906H.734l-.25 1.875c.141-.016.313-.031.547-.031.766 0 1.11.359 1.11.843 0 .532-.422.86-.922.86-.36 0-.672-.125-.828-.22L.25-.171c.188.125.547.234.969.234.843 0 1.453-.562 1.453-1.328 0-.5-.25-.828-.547-1a1.74 1.74 0 0 0-.844-.218c-.14 0-.234.015-.328.03l.156-1h1.485Zm0 0"/></symbol><symbol overflow="visible" id="w"><path style="stroke:none" d="M2.406 0v-1.063h.547v-.406h-.547v-2.437h-.578l-1.734 2.5v.343h1.812V0ZM.625-1.469v-.015l.953-1.329c.11-.187.203-.343.328-.578h.016c-.016.204-.016.407-.016.61v1.312zm0 0"/></symbol><symbol overflow="visible" id="x"><path style="stroke:none" d="M2.594-3.906H.734l-.25 1.875c.141-.016.313-.031.547-.031.766 0 1.11.359 1.11.843 0 .532-.422.86-.922.86-.36 0-.672-.125-.828-.22L.25-.171c.188.125.547.234.969.234.843 0 1.453-.562 1.453-1.328 0-.5-.25-.828-.547-1a1.74 1.74 0 0 0-.844-.218c-.14 0-.234.015-.328.03l.156-1h1.485Zm0 0"/></symbol><symbol overflow="visible" id="A"><path style="stroke:none" d="M2.594-3.906H.734l-.25 1.875c.141-.016.313-.031.547-.031.766 0 1.11.359 1.11.843 0 .532-.422.86-.922.86-.36 0-.672-.125-.828-.22L.25-.171c.188.125.547.234.969.234.843 0 1.453-.562 1.453-1.328 0-.5-.25-.828-.547-1a1.74 1.74 0 0 0-.844-.218c-.14 0-.234.015-.328.03l.156-1h1.485Zm0 0"/></symbol><symbol overflow="visible" id="B"><path style="stroke:none" d="M1.516.063c.859 0 1.359-.735 1.359-2.047 0-1.25-.484-1.985-1.297-1.985-.797 0-1.36.719-1.36 2.031.016 1.297.532 2 1.298 2zm.015-.407c-.484 0-.797-.61-.781-1.625 0-.984.313-1.593.797-1.593.547 0 .781.64.781 1.593 0 1-.25 1.625-.781 1.625zm0 0"/></symbol><symbol overflow="visible" id="E"><path style="stroke:none" d="M2.594-3.906H.734l-.25 1.875c.141-.016.313-.031.547-.031.766 0 1.11.359 1.11.843 0 .532-.422.86-.922.86-.36 0-.672-.125-.828-.22L.25-.171c.188.125.547.234.969.234.843 0 1.453-.562 1.453-1.328 0-.5-.25-.828-.547-1a1.74 1.74 0 0 0-.844-.218c-.14 0-.234.015-.328.03l.156-1h1.485Zm0 0"/></symbol><symbol overflow="visible" id="H"><path style="stroke:none" d="M1.578-3.969C.891-3.969.36-3.547.36-2.922c0 .328.188.672.625.875v.016C.516-1.828.22-1.47.22-.984c0 .578.5 1.046 1.312 1.046.75 0 1.328-.453 1.328-1.125 0-.468-.296-.828-.796-1.015v-.016c.484-.219.656-.578.656-.906 0-.5-.39-.969-1.14-.969zM1.531-.313c-.484 0-.781-.359-.765-.75 0-.359.25-.671.703-.796.515.14.86.375.86.843 0 .407-.313.704-.782.704zm.016-3.28c.469 0 .656.327.656.64 0 .36-.25.594-.594.703-.453-.11-.75-.328-.734-.719 0-.328.234-.625.672-.625zm0 0"/></symbol><symbol overflow="visible" id="I"><path style="stroke:none" d="M2.594-3.906H.734l-.25 1.875c.141-.016.313-.031.547-.031.766 0 1.11.359 1.11.843 0 .532-.422.86-.922.86-.36 0-.672-.125-.828-.22L.25-.171c.188.125.547.234.969.234.843 0 1.453-.562 1.453-1.328 0-.5-.25-.828-.547-1a1.74 1.74 0 0 0-.844-.218c-.14 0-.234.015-.328.03l.156-1h1.485Zm0 0"/></symbol><symbol overflow="visible" id="K"><path style="stroke:none" d="M2.797-2.625H.907v-1.813h2v-.28H.577V0h2.438v-.281H.906v-2.063h1.89zm0 0"/></symbol><symbol overflow="visible" id="L"><path style="stroke:none" d="M.578 0h.328v-2.281h1.828v-.281H.906v-1.876h2v-.28H.578Zm0 0"/></symbol><symbol overflow="visible" id="M"><path style="stroke:none" d="M1.469 0h.328v-4.438h1.547v-.28H-.078v.28h1.547Zm0 0"/></symbol><symbol overflow="visible" id="N"><path style="stroke:none" d="M3-1.656 3.594 0h.344L2.234-4.719h-.312L.203 0h.344l.594-1.656zm-1.766-.282.579-1.578c.109-.312.187-.546.25-.828h.015c.078.266.14.5.25.844l.563 1.563zm0 0"/></symbol><symbol overflow="visible" id="P"><path style="stroke:none" d="M3.672-.438c-.266.141-.656.22-1.063.22-1.265 0-2-.829-2-2.11 0-1.36.782-2.188 2.047-2.188.406 0 .75.094.985.204l.109-.266c-.14-.078-.5-.219-1.094-.219-1.484 0-2.39 1.063-2.39 2.469C.266-.656 1.359.078 2.5.078c.578 0 1.031-.125 1.266-.25zm0 0"/></symbol><symbol overflow="visible" id="Q"><path style="stroke:none" d="M1.875-3.438c-.828 0-1.594.626-1.594 1.782C.281-.61.953.078 1.828.078c.75 0 1.61-.531 1.61-1.797 0-1.031-.626-1.718-1.563-1.718zm0 .282c.875 0 1.219.844 1.219 1.469 0 .859-.547 1.484-1.25 1.484-.688 0-1.219-.625-1.219-1.469 0-.719.39-1.484 1.25-1.484zm0 0"/></symbol><symbol overflow="visible" id="R"><path style="stroke:none" d="M3.156-3.36h-.328v2.094c0 .125-.047.266-.078.375-.14.329-.5.672-.984.672-.672 0-.891-.515-.891-1.25v-1.89H.531v1.953C.531-.141 1.25.078 1.687.078c.594 0 .985-.36 1.141-.672h.016L2.875 0h.297c-.016-.266-.016-.531-.016-.813Zm0 0"/></symbol><symbol overflow="visible" id="S"><path style="stroke:none" d="M.563 0H.89v-2.078c0-.11.03-.219.046-.297.141-.438.547-.781 1.016-.781.688 0 .938.562.938 1.172V0h.328v-2.016c0-1.265-.86-1.421-1.172-1.421-.563 0-.969.312-1.156.687H.875l-.031-.61H.53c.016.266.031.5.031.797zm0 0"/></symbol><symbol overflow="visible" id="T"><path style="stroke:none" d="M.688-3.969v.61H.125v.265h.563v2.125c0 .344.062.625.218.797.125.172.328.25.578.25.204 0 .344-.031.47-.078l-.048-.266a1.193 1.193 0 0 1-.39.063c-.36 0-.485-.281-.485-.703v-2.188h.953v-.265h-.953v-.75zm0 0"/></symbol><symbol overflow="visible" id="U"><path style="stroke:none" d="M.563 0H.89v-1.86c0-.109.015-.218.03-.312.095-.547.423-.937.891-.937.063 0 .11 0 .157.015v-.328c-.047-.015-.094-.015-.14-.015-.454 0-.813.343-.954.75H.859L.844-3.36H.53c.016.328.031.671.031 1zm0 0"/></symbol><symbol overflow="visible" id="W"><path style="stroke:none" d="M.89 0v-3.36H.563V0ZM.735-4.61c-.156 0-.265.141-.265.298 0 .14.094.28.25.28A.28.28 0 0 0 1-4.311C1-4.484.89-4.61.734-4.61Zm0 0"/></symbol><symbol overflow="visible" id="X"><path style="stroke:none" d="M3.094-1.719c.015-.047.015-.11.015-.203 0-.484-.218-1.516-1.312-1.516-.86 0-1.516.704-1.516 1.829C.281-.625.891.078 1.86.078c.579 0 .922-.14 1.047-.219l-.078-.265c-.187.094-.437.187-.937.187-.688 0-1.282-.422-1.282-1.5zM.64-1.984c.046-.516.375-1.172 1.109-1.172.813 0 1.016.703 1.016 1.172zm0 0"/></symbol><symbol overflow="visible" id="Y"><path style="stroke:none" d="M.313-.156c.218.14.515.234.843.234.688 0 1.14-.39 1.14-.969 0-.515-.327-.78-.874-1-.453-.187-.688-.328-.688-.687 0-.313.22-.578.657-.578.328 0 .546.125.656.203l.14-.281a1.426 1.426 0 0 0-.75-.204c-.656 0-1.03.422-1.03.907 0 .406.296.719.859.922.484.203.703.39.703.765 0 .344-.25.64-.782.64-.312 0-.578-.124-.765-.234zm0 0"/></symbol><symbol overflow="visible" id="ab"><path style="stroke:none" d="M3.672-.438c-.266.141-.656.22-1.063.22-1.265 0-2-.829-2-2.11 0-1.36.782-2.188 2.047-2.188.406 0 .75.094.985.204l.109-.266c-.14-.078-.5-.219-1.094-.219-1.484 0-2.39 1.063-2.39 2.469C.266-.656 1.359.078 2.5.078c.578 0 1.031-.125 1.266-.25zm0 0"/></symbol><symbol overflow="visible" id="ac"><path style="stroke:none" d="M3.094-1.719c.015-.047.015-.11.015-.203 0-.484-.218-1.516-1.312-1.516-.86 0-1.516.704-1.516 1.829C.281-.625.891.078 1.86.078c.579 0 .922-.14 1.047-.219l-.078-.265c-.187.094-.437.187-.937.187-.688 0-1.282-.422-1.282-1.5zM.64-1.984c.046-.516.375-1.172 1.109-1.172.813 0 1.016.703 1.016 1.172zm0 0"/></symbol><symbol overflow="visible" id="ad"><path style="stroke:none" d="M.563 0H.89v-2.078c0-.11.03-.219.046-.297.141-.438.547-.781 1.016-.781.688 0 .938.562.938 1.172V0h.328v-2.016c0-1.265-.86-1.421-1.172-1.421-.563 0-.969.312-1.156.687H.875l-.031-.61H.53c.016.266.031.5.031.797zm0 0"/></symbol><symbol overflow="visible" id="ae"><path style="stroke:none" d="M.688-3.969v.61H.125v.265h.563v2.125c0 .344.062.625.218.797.125.172.328.25.578.25.204 0 .344-.031.47-.078l-.048-.266a1.193 1.193 0 0 1-.39.063c-.36 0-.485-.281-.485-.703v-2.188h.953v-.265h-.953v-.75zm0 0"/></symbol><symbol overflow="visible" id="af"><path style="stroke:none" d="M.563 0H.89v-1.86c0-.109.015-.218.03-.312.095-.547.423-.937.891-.937.063 0 .11 0 .157.015v-.328c-.047-.015-.094-.015-.14-.015-.454 0-.813.343-.954.75H.859L.844-3.36H.53c.016.328.031.671.031 1zm0 0"/></symbol><symbol overflow="visible" id="ag"><path style="stroke:none" d="M2.656-2.11c0-.593-.187-1.328-1.156-1.328-.297 0-.688.079-.984.282l.109.25c.234-.172.547-.25.844-.25.797 0 .86.656.86 1v.078C.952-2.094.265-1.625.265-.844c0 .438.328.922 1 .922.53 0 .906-.297 1.062-.562h.031L2.406 0h.297a6.814 6.814 0 0 1-.047-.797Zm-.328 1.032c0 .062-.015.14-.047.203-.11.328-.422.672-.984.672-.36 0-.672-.219-.672-.703 0-.797.969-.906 1.703-.89zm0 0"/></symbol><symbol overflow="visible" id="ah"><path style="stroke:none" d="M.563 0H.89v-4.969H.562Zm0 0"/></symbol><symbol overflow="visible" id="aj"><path style="stroke:none" d="M2.906-4.969v2.125h-.015c-.141-.297-.516-.594-1.094-.594-.828 0-1.516.704-1.516 1.829 0 1 .625 1.687 1.453 1.687.625 0 1.032-.344 1.204-.719h.015L2.97 0h.297a12.55 12.55 0 0 1-.032-.781V-4.97zm0 3.61c0 .109-.015.187-.031.28-.14.563-.594.876-1.078.876C1-.203.625-.891.625-1.656c0-.875.453-1.5 1.188-1.5.546 0 .953.375 1.062.812.016.094.031.219.031.313zm0 0"/></symbol><symbol overflow="visible" id="ak"><path style="stroke:none" d="M2.797-2.625H.907v-1.813h2v-.28H.577V0h2.438v-.281H.906v-2.063h1.89zm0 0"/></symbol><symbol overflow="visible" id="al"><path style="stroke:none" d="M.313-.156c.218.14.515.234.843.234.688 0 1.14-.39 1.14-.969 0-.515-.327-.78-.874-1-.453-.187-.688-.328-.688-.687 0-.313.22-.578.657-.578.328 0 .546.125.656.203l.14-.281a1.426 1.426 0 0 0-.75-.204c-.656 0-1.03.422-1.03.907 0 .406.296.719.859.922.484.203.703.39.703.765 0 .344-.25.64-.782.64-.312 0-.578-.124-.765-.234zm0 0"/></symbol><symbol overflow="visible" id="am"><path style="stroke:none" d="M3.156-3.36h-.328v2.094c0 .125-.047.266-.078.375-.14.329-.5.672-.984.672-.672 0-.891-.515-.891-1.25v-1.89H.531v1.953C.531-.141 1.25.078 1.687.078c.594 0 .985-.36 1.141-.672h.016L2.875 0h.297c-.016-.266-.016-.531-.016-.813Zm0 0"/></symbol><symbol overflow="visible" id="ao"><path style="stroke:none" d="M1.875-3.438c-.828 0-1.594.626-1.594 1.782C.281-.61.953.078 1.828.078c.75 0 1.61-.531 1.61-1.797 0-1.031-.626-1.718-1.563-1.718zm0 .282c.875 0 1.219.844 1.219 1.469 0 .859-.547 1.484-1.25 1.484-.688 0-1.219-.625-1.219-1.469 0-.719.39-1.484 1.25-1.484zm0 0"/></symbol><symbol overflow="visible" id="ap"><path style="stroke:none" d="M.563 1.39H.89V-.546h.015c.235.406.656.625 1.14.625.813 0 1.532-.61 1.532-1.812 0-.985-.578-1.704-1.437-1.704-.594 0-1 .266-1.25.72H.875L.859-3.36H.531c.016.312.031.656.031 1.078zM.89-1.983c0-.094.03-.188.046-.282.157-.562.625-.89 1.125-.89.766 0 1.172.672 1.172 1.437 0 .89-.437 1.516-1.203 1.516a1.132 1.132 0 0 1-1.14-1.125zm0 0"/></symbol><symbol overflow="visible" id="as"><path style="stroke:none" d="M.578 0c.172.016.453.031.813.031.671 0 1.171-.125 1.484-.437.219-.235.36-.531.36-.906 0-.782-.61-1.11-1-1.204v-.015c.468-.172.812-.578.812-1.063 0-.328-.094-.578-.281-.781-.282-.25-.657-.375-1.25-.375-.344 0-.688.031-.938.094zm.328-4.422c.11-.031.281-.047.594-.047.703 0 1.203.235 1.203.907 0 .515-.422.921-1.11.921H.907zm0 2.047H1.5c.75 0 1.39.328 1.39 1.063C2.89-.5 2.204-.25 1.485-.25c-.25 0-.437 0-.578-.031zm0 0"/></symbol><symbol overflow="visible" id="at"><path style="stroke:none" d="M2.656-2.11c0-.593-.187-1.328-1.156-1.328-.297 0-.688.079-.984.282l.109.25c.234-.172.547-.25.844-.25.797 0 .86.656.86 1v.078C.952-2.094.265-1.625.265-.844c0 .438.328.922 1 .922.53 0 .906-.297 1.062-.562h.031L2.406 0h.297a6.814 6.814 0 0 1-.047-.797Zm-.328 1.032c0 .062-.015.14-.047.203-.11.328-.422.672-.984.672-.36 0-.672-.219-.672-.703 0-.797.969-.906 1.703-.89zm0 0"/></symbol><symbol overflow="visible" id="au"><path style="stroke:none" d="M.563 0H.89v-4.969H.562Zm0 0"/></symbol><symbol overflow="visible" id="av"><path style="stroke:none" d="M.688-3.969v.61H.125v.265h.563v2.125c0 .344.062.625.218.797.125.172.328.25.578.25.204 0 .344-.031.47-.078l-.048-.266a1.193 1.193 0 0 1-.39.063c-.36 0-.485-.281-.485-.703v-2.188h.953v-.265h-.953v-.75zm0 0"/></symbol><symbol overflow="visible" id="aw"><path style="stroke:none" d="M.89 0v-3.36H.563V0ZM.735-4.61c-.156 0-.265.141-.265.298 0 .14.094.28.25.28A.28.28 0 0 0 1-4.311C1-4.484.89-4.61.734-4.61Zm0 0"/></symbol><symbol overflow="visible" id="ax"><path style="stroke:none" d="M2.797-.406c-.188.078-.438.187-.844.187-.781 0-1.328-.578-1.328-1.453 0-.781.453-1.484 1.36-1.484.374 0 .64.11.796.203l.125-.281a1.945 1.945 0 0 0-.89-.204c-1 0-1.735.735-1.735 1.797C.281-.625.937.08 1.906.08c.485 0 .828-.142.985-.22zm0 0"/></symbol><symbol overflow="visible" id="az"><path style="stroke:none" d="M.297-.25c.234.188.719.328 1.125.328 1 0 1.5-.61 1.5-1.297 0-.718-.422-1.062-1.188-1.375C1.047-2.859.75-3.125.75-3.656c0-.375.266-.86 1.016-.86.406 0 .718.141.843.22l.125-.282a1.998 1.998 0 0 0-.937-.219c-.797 0-1.375.5-1.375 1.203 0 .64.453 1.031 1.219 1.297.671.266.953.578.953 1.11 0 .578-.438.984-1.14.984-.391 0-.766-.14-1.032-.328zm0 0"/></symbol><symbol overflow="visible" id="aA"><path style="stroke:none" d="M3.094-1.719c.015-.047.015-.11.015-.203 0-.484-.218-1.516-1.312-1.516-.86 0-1.516.704-1.516 1.829C.281-.625.891.078 1.86.078c.579 0 .922-.14 1.047-.219l-.078-.265c-.187.094-.437.187-.937.187-.688 0-1.282-.422-1.282-1.5zM.64-1.984c.046-.516.375-1.172 1.109-1.172.813 0 1.016.703 1.016 1.172zm0 0"/></symbol><symbol overflow="visible" id="aB"><path style="stroke:none" d="M.313-.156c.218.14.515.234.843.234.688 0 1.14-.39 1.14-.969 0-.515-.327-.78-.874-1-.453-.187-.688-.328-.688-.687 0-.313.22-.578.657-.578.328 0 .546.125.656.203l.14-.281a1.426 1.426 0 0 0-.75-.204c-.656 0-1.03.422-1.03.907 0 .406.296.719.859.922.484.203.703.39.703.765 0 .344-.25.64-.782.64-.312 0-.578-.124-.765-.234zm0 0"/></symbol><symbol overflow="visible" id="aE"><path style="stroke:none" d="M3.672-.438c-.266.141-.656.22-1.063.22-1.265 0-2-.829-2-2.11 0-1.36.782-2.188 2.047-2.188.406 0 .75.094.985.204l.109-.266c-.14-.078-.5-.219-1.094-.219-1.484 0-2.39 1.063-2.39 2.469C.266-.656 1.359.078 2.5.078c.578 0 1.031-.125 1.266-.25zm0 0"/></symbol><symbol overflow="visible" id="aF"><path style="stroke:none" d="M2.656-2.11c0-.593-.187-1.328-1.156-1.328-.297 0-.688.079-.984.282l.109.25c.234-.172.547-.25.844-.25.797 0 .86.656.86 1v.078C.952-2.094.265-1.625.265-.844c0 .438.328.922 1 .922.53 0 .906-.297 1.062-.562h.031L2.406 0h.297a6.814 6.814 0 0 1-.047-.797Zm-.328 1.032c0 .062-.015.14-.047.203-.11.328-.422.672-.984.672-.36 0-.672-.219-.672-.703 0-.797.969-.906 1.703-.89zm0 0"/></symbol><symbol overflow="visible" id="aG"><path style="stroke:none" d="M.563 0H.89v-2.078c0-.11.03-.219.046-.297.141-.438.547-.781 1.016-.781.688 0 .938.562.938 1.172V0h.328v-2.016c0-1.265-.86-1.421-1.172-1.421-.563 0-.969.312-1.156.687H.875l-.031-.61H.53c.016.266.031.5.031.797zm0 0"/></symbol><symbol overflow="visible" id="aH"><path style="stroke:none" d="M2.906-4.969v2.125h-.015c-.141-.297-.516-.594-1.094-.594-.828 0-1.516.704-1.516 1.829 0 1 .625 1.687 1.453 1.687.625 0 1.032-.344 1.204-.719h.015L2.97 0h.297a12.55 12.55 0 0 1-.032-.781V-4.97zm0 3.61c0 .109-.015.187-.031.28-.14.563-.594.876-1.078.876C1-.203.625-.891.625-1.656c0-.875.453-1.5 1.188-1.5.546 0 .953.375 1.062.812.016.094.031.219.031.313zm0 0"/></symbol><symbol overflow="visible" id="aI"><path style="stroke:none" d="M.89 0v-3.36H.563V0ZM.735-4.61c-.156 0-.265.141-.265.298 0 .14.094.28.25.28A.28.28 0 0 0 1-4.311C1-4.484.89-4.61.734-4.61Zm0 0"/></symbol><symbol overflow="visible" id="aJ"><path style="stroke:none" d="M.688-3.969v.61H.125v.265h.563v2.125c0 .344.062.625.218.797.125.172.328.25.578.25.204 0 .344-.031.47-.078l-.048-.266a1.193 1.193 0 0 1-.39.063c-.36 0-.485-.281-.485-.703v-2.188h.953v-.265h-.953v-.75zm0 0"/></symbol><symbol overflow="visible" id="aK"><path style="stroke:none" d="M3.094-1.719c.015-.047.015-.11.015-.203 0-.484-.218-1.516-1.312-1.516-.86 0-1.516.704-1.516 1.829C.281-.625.891.078 1.86.078c.579 0 .922-.14 1.047-.219l-.078-.265c-.187.094-.437.187-.937.187-.688 0-1.282-.422-1.282-1.5zM.64-1.984c.046-.516.375-1.172 1.109-1.172.813 0 1.016.703 1.016 1.172zm0 0"/></symbol><symbol overflow="visible" id="aM"><path style="stroke:none" d="M1.875-3.438c-.828 0-1.594.626-1.594 1.782C.281-.61.953.078 1.828.078c.75 0 1.61-.531 1.61-1.797 0-1.031-.626-1.718-1.563-1.718zm0 .282c.875 0 1.219.844 1.219 1.469 0 .859-.547 1.484-1.25 1.484-.688 0-1.219-.625-1.219-1.469 0-.719.39-1.484 1.25-1.484zm0 0"/></symbol><symbol overflow="visible" id="aN"><path style="stroke:none" d="M3.156-3.36h-.328v2.094c0 .125-.047.266-.078.375-.14.329-.5.672-.984.672-.672 0-.891-.515-.891-1.25v-1.89H.531v1.953C.531-.141 1.25.078 1.687.078c.594 0 .985-.36 1.141-.672h.016L2.875 0h.297c-.016-.266-.016-.531-.016-.813Zm0 0"/></symbol><symbol overflow="visible" id="aO"><path style="stroke:none" d="M.563 0H.89v-1.86c0-.109.015-.218.03-.312.095-.547.423-.937.891-.937.063 0 .11 0 .157.015v-.328c-.047-.015-.094-.015-.14-.015-.454 0-.813.343-.954.75H.859L.844-3.36H.53c.016.328.031.671.031 1zm0 0"/></symbol><symbol overflow="visible" id="aP"><path style="stroke:none" d="M.313-.156c.218.14.515.234.843.234.688 0 1.14-.39 1.14-.969 0-.515-.327-.78-.874-1-.453-.187-.688-.328-.688-.687 0-.313.22-.578.657-.578.328 0 .546.125.656.203l.14-.281a1.426 1.426 0 0 0-.75-.204c-.656 0-1.03.422-1.03.907 0 .406.296.719.859.922.484.203.703.39.703.765 0 .344-.25.64-.782.64-.312 0-.578-.124-.765-.234zm0 0"/></symbol><symbol overflow="visible" id="aR"><path style="stroke:none" d="M.297-.25c.234.188.719.328 1.125.328 1 0 1.5-.61 1.5-1.297 0-.718-.422-1.062-1.188-1.375C1.047-2.859.75-3.125.75-3.656c0-.375.266-.86 1.016-.86.406 0 .718.141.843.22l.125-.282a1.998 1.998 0 0 0-.937-.219c-.797 0-1.375.5-1.375 1.203 0 .64.453 1.031 1.219 1.297.671.266.953.578.953 1.11 0 .578-.438.984-1.14.984-.391 0-.766-.14-1.032-.328zm0 0"/></symbol><symbol overflow="visible" id="aS"><path style="stroke:none" d="M1.875-3.438c-.828 0-1.594.626-1.594 1.782C.281-.61.953.078 1.828.078c.75 0 1.61-.531 1.61-1.797 0-1.031-.626-1.718-1.563-1.718zm0 .282c.875 0 1.219.844 1.219 1.469 0 .859-.547 1.484-1.25 1.484-.688 0-1.219-.625-1.219-1.469 0-.719.39-1.484 1.25-1.484zm0 0"/></symbol><symbol overflow="visible" id="aT"><path style="stroke:none" d="M3.156-3.36h-.328v2.094c0 .125-.047.266-.078.375-.14.329-.5.672-.984.672-.672 0-.891-.515-.891-1.25v-1.89H.531v1.953C.531-.141 1.25.078 1.687.078c.594 0 .985-.36 1.141-.672h.016L2.875 0h.297c-.016-.266-.016-.531-.016-.813Zm0 0"/></symbol><symbol overflow="visible" id="aU"><path style="stroke:none" d="M.688-3.969v.61H.125v.265h.563v2.125c0 .344.062.625.218.797.125.172.328.25.578.25.204 0 .344-.031.47-.078l-.048-.266a1.193 1.193 0 0 1-.39.063c-.36 0-.485-.281-.485-.703v-2.188h.953v-.265h-.953v-.75zm0 0"/></symbol><symbol overflow="visible" id="aV"><path style="stroke:none" d="M.563 0H.89v-2.063c0-.124.015-.218.046-.328.141-.421.547-.765 1.016-.765.688 0 .938.562.938 1.172V0h.328v-2.031c0-1.25-.86-1.406-1.172-1.406-.25 0-.485.078-.672.187-.203.125-.36.297-.469.484H.891v-2.203H.562Zm0 0"/></symbol><symbol overflow="visible" id="aW"><path style="stroke:none" d="M3.094-1.719c.015-.047.015-.11.015-.203 0-.484-.218-1.516-1.312-1.516-.86 0-1.516.704-1.516 1.829C.281-.625.891.078 1.86.078c.579 0 .922-.14 1.047-.219l-.078-.265c-.187.094-.437.187-.937.187-.688 0-1.282-.422-1.282-1.5zM.64-1.984c.046-.516.375-1.172 1.109-1.172.813 0 1.016.703 1.016 1.172zm0 0"/></symbol><symbol overflow="visible" id="aX"><path style="stroke:none" d="M.563 0H.89v-1.86c0-.109.015-.218.03-.312.095-.547.423-.937.891-.937.063 0 .11 0 .157.015v-.328c-.047-.015-.094-.015-.14-.015-.454 0-.813.343-.954.75H.859L.844-3.36H.53c.016.328.031.671.031 1zm0 0"/></symbol><symbol overflow="visible" id="aY"><path style="stroke:none" d="M.563 0H.89v-2.078c0-.11.03-.219.046-.297.141-.438.547-.781 1.016-.781.688 0 .938.562.938 1.172V0h.328v-2.016c0-1.265-.86-1.421-1.172-1.421-.563 0-.969.312-1.156.687H.875l-.031-.61H.53c.016.266.031.5.031.797zm0 0"/></symbol><symbol overflow="visible" id="ba"><path style="stroke:none" d="M2.797-2.625H.907v-1.813h2v-.28H.577V0h2.438v-.281H.906v-2.063h1.89zm0 0"/></symbol><symbol overflow="visible" id="bc"><path style="stroke:none" d="M.563 1.39H.89V-.546h.015c.235.406.656.625 1.14.625.813 0 1.532-.61 1.532-1.812 0-.985-.578-1.704-1.437-1.704-.594 0-1 .266-1.25.72H.875L.859-3.36H.531c.016.312.031.656.031 1.078zM.89-1.983c0-.094.03-.188.046-.282.157-.562.625-.89 1.125-.89.766 0 1.172.672 1.172 1.437 0 .89-.437 1.516-1.203 1.516a1.132 1.132 0 0 1-1.14-1.125zm0 0"/></symbol><symbol overflow="visible" id="bf"><path style="stroke:none" d="m1.672 0 .797-2.719c.219-.703.344-1.156.422-1.594.078.438.187.907.375 1.594L3.969 0h.328l1.422-4.719h-.344l-.781 2.657c-.172.593-.328 1.109-.422 1.624H4.14c-.063-.484-.235-1.062-.375-1.64l-.704-2.64H2.75l-.781 2.655c-.188.626-.36 1.188-.422 1.626h-.031a44.907 44.907 0 0 0-.391-1.625L.437-4.72H.11L1.344 0Zm0 0"/></symbol><symbol overflow="visible" id="bg"><path style="stroke:none" d="M3.094-1.719c.015-.047.015-.11.015-.203 0-.484-.218-1.516-1.312-1.516-.86 0-1.516.704-1.516 1.829C.281-.625.891.078 1.86.078c.579 0 .922-.14 1.047-.219l-.078-.265c-.187.094-.437.187-.937.187-.688 0-1.282-.422-1.282-1.5zM.64-1.984c.046-.516.375-1.172 1.109-1.172.813 0 1.016.703 1.016 1.172zm0 0"/></symbol><symbol overflow="visible" id="bh"><path style="stroke:none" d="M.313-.156c.218.14.515.234.843.234.688 0 1.14-.39 1.14-.969 0-.515-.327-.78-.874-1-.453-.187-.688-.328-.688-.687 0-.313.22-.578.657-.578.328 0 .546.125.656.203l.14-.281a1.426 1.426 0 0 0-.75-.204c-.656 0-1.03.422-1.03.907 0 .406.296.719.859.922.484.203.703.39.703.765 0 .344-.25.64-.782.64-.312 0-.578-.124-.765-.234zm0 0"/></symbol><symbol overflow="visible" id="bi"><path style="stroke:none" d="M.688-3.969v.61H.125v.265h.563v2.125c0 .344.062.625.218.797.125.172.328.25.578.25.204 0 .344-.031.47-.078l-.048-.266a1.193 1.193 0 0 1-.39.063c-.36 0-.485-.281-.485-.703v-2.188h.953v-.265h-.953v-.75zm0 0"/></symbol><symbol overflow="visible" id="bj"><path style="stroke:none" d="M.563 0H.89v-1.86c0-.109.015-.218.03-.312.095-.547.423-.937.891-.937.063 0 .11 0 .157.015v-.328c-.047-.015-.094-.015-.14-.015-.454 0-.813.343-.954.75H.859L.844-3.36H.53c.016.328.031.671.031 1zm0 0"/></symbol><symbol overflow="visible" id="bk"><path style="stroke:none" d="M.563 0H.89v-2.078c0-.11.03-.219.046-.297.141-.438.547-.781 1.016-.781.688 0 .938.562.938 1.172V0h.328v-2.016c0-1.265-.86-1.421-1.172-1.421-.563 0-.969.312-1.156.687H.875l-.031-.61H.53c.016.266.031.5.031.797zm0 0"/></symbol><symbol overflow="visible" id="bm"><path style="stroke:none" d="M2.797-2.625H.907v-1.813h2v-.28H.577V0h2.438v-.281H.906v-2.063h1.89zm0 0"/></symbol><symbol overflow="visible" id="bn"><path style="stroke:none" d="M3.156-3.36h-.328v2.094c0 .125-.047.266-.078.375-.14.329-.5.672-.984.672-.672 0-.891-.515-.891-1.25v-1.89H.531v1.953C.531-.141 1.25.078 1.687.078c.594 0 .985-.36 1.141-.672h.016L2.875 0h.297c-.016-.266-.016-.531-.016-.813Zm0 0"/></symbol><symbol overflow="visible" id="bp"><path style="stroke:none" d="M1.875-3.438c-.828 0-1.594.626-1.594 1.782C.281-.61.953.078 1.828.078c.75 0 1.61-.531 1.61-1.797 0-1.031-.626-1.718-1.563-1.718zm0 .282c.875 0 1.219.844 1.219 1.469 0 .859-.547 1.484-1.25 1.484-.688 0-1.219-.625-1.219-1.469 0-.719.39-1.484 1.25-1.484zm0 0"/></symbol><symbol overflow="visible" id="bq"><path style="stroke:none" d="M.563 1.39H.89V-.546h.015c.235.406.656.625 1.14.625.813 0 1.532-.61 1.532-1.812 0-.985-.578-1.704-1.437-1.704-.594 0-1 .266-1.25.72H.875L.859-3.36H.531c.016.312.031.656.031 1.078zM.89-1.983c0-.094.03-.188.046-.282.157-.562.625-.89 1.125-.89.766 0 1.172.672 1.172 1.437 0 .89-.437 1.516-1.203 1.516a1.132 1.132 0 0 1-1.14-1.125zm0 0"/></symbol><symbol overflow="visible" id="bt"><path style="stroke:none" d="M2.797-2.625H.907v-1.813h2v-.28H.577V0h2.438v-.281H.906v-2.063h1.89zm0 0"/></symbol><symbol overflow="visible" id="bu"><path style="stroke:none" d="M3.156-3.36h-.328v2.094c0 .125-.047.266-.078.375-.14.329-.5.672-.984.672-.672 0-.891-.515-.891-1.25v-1.89H.531v1.953C.531-.141 1.25.078 1.687.078c.594 0 .985-.36 1.141-.672h.016L2.875 0h.297c-.016-.266-.016-.531-.016-.813Zm0 0"/></symbol><symbol overflow="visible" id="bv"><path style="stroke:none" d="M.563 0H.89v-1.86c0-.109.015-.218.03-.312.095-.547.423-.937.891-.937.063 0 .11 0 .157.015v-.328c-.047-.015-.094-.015-.14-.015-.454 0-.813.343-.954.75H.859L.844-3.36H.53c.016.328.031.671.031 1zm0 0"/></symbol><symbol overflow="visible" id="bx"><path style="stroke:none" d="M1.875-3.438c-.828 0-1.594.626-1.594 1.782C.281-.61.953.078 1.828.078c.75 0 1.61-.531 1.61-1.797 0-1.031-.626-1.718-1.563-1.718zm0 .282c.875 0 1.219.844 1.219 1.469 0 .859-.547 1.484-1.25 1.484-.688 0-1.219-.625-1.219-1.469 0-.719.39-1.484 1.25-1.484zm0 0"/></symbol><symbol overflow="visible" id="by"><path style="stroke:none" d="M.563 1.39H.89V-.546h.015c.235.406.656.625 1.14.625.813 0 1.532-.61 1.532-1.812 0-.985-.578-1.704-1.437-1.704-.594 0-1 .266-1.25.72H.875L.859-3.36H.531c.016.312.031.656.031 1.078zM.89-1.983c0-.094.03-.188.046-.282.157-.562.625-.89 1.125-.89.766 0 1.172.672 1.172 1.437 0 .89-.437 1.516-1.203 1.516a1.132 1.132 0 0 1-1.14-1.125zm0 0"/></symbol><symbol overflow="visible" id="bz"><path style="stroke:none" d="M3.094-1.719c.015-.047.015-.11.015-.203 0-.484-.218-1.516-1.312-1.516-.86 0-1.516.704-1.516 1.829C.281-.625.891.078 1.86.078c.579 0 .922-.14 1.047-.219l-.078-.265c-.187.094-.437.187-.937.187-.688 0-1.282-.422-1.282-1.5zM.64-1.984c.046-.516.375-1.172 1.109-1.172.813 0 1.016.703 1.016 1.172zm0 0"/></symbol><symbol overflow="visible" id="bA"><path style="stroke:none" d="M2.656-2.11c0-.593-.187-1.328-1.156-1.328-.297 0-.688.079-.984.282l.109.25c.234-.172.547-.25.844-.25.797 0 .86.656.86 1v.078C.952-2.094.265-1.625.265-.844c0 .438.328.922 1 .922.53 0 .906-.297 1.062-.562h.031L2.406 0h.297a6.814 6.814 0 0 1-.047-.797Zm-.328 1.032c0 .062-.015.14-.047.203-.11.328-.422.672-.984.672-.36 0-.672-.219-.672-.703 0-.797.969-.906 1.703-.89zm0 0"/></symbol><symbol overflow="visible" id="bB"><path style="stroke:none" d="M.563 0H.89v-2.078c0-.11.03-.219.046-.297.141-.438.547-.781 1.016-.781.688 0 .938.562.938 1.172V0h.328v-2.016c0-1.265-.86-1.421-1.172-1.421-.563 0-.969.312-1.156.687H.875l-.031-.61H.53c.016.266.031.5.031.797zm0 0"/></symbol><symbol overflow="visible" id="bD"><path style="stroke:none" d="M.578-4.719v2.875c0 1.438.735 1.922 1.563 1.922.89 0 1.671-.531 1.671-1.984V-4.72h-.328v2.844c0 1.156-.546 1.672-1.328 1.672-.687 0-1.25-.469-1.25-1.672v-2.844zm0 0"/></symbol><symbol overflow="visible" id="bE"><path style="stroke:none" d="M.89 0v-3.36H.563V0ZM.735-4.61c-.156 0-.265.141-.265.298 0 .14.094.28.25.28A.28.28 0 0 0 1-4.311C1-4.484.89-4.61.734-4.61Zm0 0"/></symbol><symbol overflow="visible" id="bH"><path style="stroke:none" d="M.89 0v-2.39c0-.782 0-1.297-.03-1.876h.015c.234.485.563.97.906 1.516L3.578 0h.328v-4.719h-.344v2.344c0 .75.016 1.281.063 1.922h-.016c-.234-.453-.5-.89-.875-1.484L.891-4.72H.578V0Zm0 0"/></symbol><symbol overflow="visible" id="bI"><path style="stroke:none" d="M1.875-3.438c-.828 0-1.594.626-1.594 1.782C.281-.61.953.078 1.828.078c.75 0 1.61-.531 1.61-1.797 0-1.031-.626-1.718-1.563-1.718zm0 .282c.875 0 1.219.844 1.219 1.469 0 .859-.547 1.484-1.25 1.484-.688 0-1.219-.625-1.219-1.469 0-.719.39-1.484 1.25-1.484zm0 0"/></symbol><symbol overflow="visible" id="bJ"><path style="stroke:none" d="M.563 0H.89v-1.86c0-.109.015-.218.03-.312.095-.547.423-.937.891-.937.063 0 .11 0 .157.015v-.328c-.047-.015-.094-.015-.14-.015-.454 0-.813.343-.954.75H.859L.844-3.36H.53c.016.328.031.671.031 1zm0 0"/></symbol><symbol overflow="visible" id="bK"><path style="stroke:none" d="M.688-3.969v.61H.125v.265h.563v2.125c0 .344.062.625.218.797.125.172.328.25.578.25.204 0 .344-.031.47-.078l-.048-.266a1.193 1.193 0 0 1-.39.063c-.36 0-.485-.281-.485-.703v-2.188h.953v-.265h-.953v-.75zm0 0"/></symbol><symbol overflow="visible" id="bL"><path style="stroke:none" d="M.563 0H.89v-2.063c0-.124.015-.218.046-.328.141-.421.547-.765 1.016-.765.688 0 .938.562.938 1.172V0h.328v-2.031c0-1.25-.86-1.406-1.172-1.406-.25 0-.485.078-.672.187-.203.125-.36.297-.469.484H.891v-2.203H.562Zm0 0"/></symbol><symbol overflow="visible" id="bM"><path style="stroke:none" d="M3.094-1.719c.015-.047.015-.11.015-.203 0-.484-.218-1.516-1.312-1.516-.86 0-1.516.704-1.516 1.829C.281-.625.891.078 1.86.078c.579 0 .922-.14 1.047-.219l-.078-.265c-.187.094-.437.187-.937.187-.688 0-1.282-.422-1.282-1.5zM.64-1.984c.046-.516.375-1.172 1.109-1.172.813 0 1.016.703 1.016 1.172zm0 0"/></symbol><symbol overflow="visible" id="bN"><path style="stroke:none" d="M.563 0H.89v-2.078c0-.11.03-.219.046-.297.141-.438.547-.781 1.016-.781.688 0 .938.562.938 1.172V0h.328v-2.016c0-1.265-.86-1.421-1.172-1.421-.563 0-.969.312-1.156.687H.875l-.031-.61H.53c.016.266.031.5.031.797zm0 0"/></symbol><symbol overflow="visible" id="bP"><path style="stroke:none" d="M2.797-2.625H.907v-1.813h2v-.28H.577V0h2.438v-.281H.906v-2.063h1.89zm0 0"/></symbol><symbol overflow="visible" id="bQ"><path style="stroke:none" d="M3.156-3.36h-.328v2.094c0 .125-.047.266-.078.375-.14.329-.5.672-.984.672-.672 0-.891-.515-.891-1.25v-1.89H.531v1.953C.531-.141 1.25.078 1.687.078c.594 0 .985-.36 1.141-.672h.016L2.875 0h.297c-.016-.266-.016-.531-.016-.813Zm0 0"/></symbol><symbol overflow="visible" id="bS"><path style="stroke:none" d="M.563 1.39H.89V-.546h.015c.235.406.656.625 1.14.625.813 0 1.532-.61 1.532-1.812 0-.985-.578-1.704-1.437-1.704-.594 0-1 .266-1.25.72H.875L.859-3.36H.531c.016.312.031.656.031 1.078zM.89-1.983c0-.094.03-.188.046-.282.157-.562.625-.89 1.125-.89.766 0 1.172.672 1.172 1.437 0 .89-.437 1.516-1.203 1.516a1.132 1.132 0 0 1-1.14-1.125zm0 0"/></symbol><clipPath id="b"><path d="M.273 1h6.153v5H.273Zm0 0"/></clipPath><clipPath id="a"><path d="M0 0h7v7H0z"/></clipPath><clipPath id="f"><path d="M.273 1h6.153v5H.273Zm0 0"/></clipPath><clipPath id="e"><path d="M0 0h7v7H0z"/></clipPath><clipPath id="j"><path d="M.273 2h6.153v5H.273Zm0 0"/></clipPath><clipPath id="i"><path d="M0 0h7v8H0z"/></clipPath><clipPath id="n"><path d="M.273 1h6.153v5H.273Zm0 0"/></clipPath><clipPath id="m"><path d="M0 0h7v8H0z"/></clipPath><clipPath id="r"><path d="M.273 2h6.153v4H.273Zm0 0"/></clipPath><clipPath id="q"><path d="M0 0h7v8H0z"/></clipPath><clipPath id="v"><path d="M.273 1h6.153v5H.273Zm0 0"/></clipPath><clipPath id="u"><path d="M0 0h7v7H0z"/></clipPath><clipPath id="z"><path d="M.273 1h6.153v5H.273Zm0 0"/></clipPath><clipPath id="y"><path d="M0 0h7v7H0z"/></clipPath><clipPath id="D"><path d="M.273 1h6.153v5H.273Zm0 0"/></clipPath><clipPath id="C"><path d="M0 0h7v7H0z"/></clipPath><clipPath id="G"><path d="M.273 1h6.153v5H.273Zm0 0"/></clipPath><clipPath id="F"><path d="M0 0h7v8H0z"/></clipPath><clipPath id="V"><path d="M35 1h7.445v6H35Zm0 0"/></clipPath><clipPath id="J"><path d="M0 0h43v8H0z"/></clipPath><clipPath id="aa"><path d="M.719 1H5v6H.719Zm0 0"/></clipPath><clipPath id="an"><path d="M65 3h11.371v5.367H65Zm0 0"/></clipPath><clipPath id="Z"><path d="M0 0h77v9H0z"/></clipPath><clipPath id="ar"><path d="M.004 1H28v6H.004Zm0 0"/></clipPath><clipPath id="aq"><path d="M0 0h34v9H0z"/></clipPath><clipPath id="aD"><path d="M.004 1H4v6H.004Zm0 0"/></clipPath><clipPath id="aC"><path d="M0 0h58v8H0z"/></clipPath><clipPath id="bb"><path d="M37 3h11v5.367H37Zm0 0"/></clipPath><clipPath id="aQ"><path d="M0 0h49v9H0z"/></clipPath><clipPath id="be"><path d="M.71 1H7v6H.71Zm0 0"/></clipPath><clipPath id="bo"><path d="M34 2h11v5.82H34Zm0 0"/></clipPath><clipPath id="bd"><path d="M0 0h46v8H0z"/></clipPath><clipPath id="bs"><path d="M.016 1H4v6H.016Zm0 0"/></clipPath><clipPath id="bw"><path d="M9 1h36v7.367H9Zm0 0"/></clipPath><clipPath id="br"><path d="M0 0h46v9H0z"/></clipPath><clipPath id="bG"><path d="M.016 1H11v6H.016Zm0 0"/></clipPath><clipPath id="bR"><path d="M36 2h11v5.816H36Zm0 0"/></clipPath><clipPath id="bF"><path d="M0 0h48v8H0z"/></clipPath><clipPath id="bU"><path d="M139.91 651H144v6h-4.09zm0 0"/></clipPath><clipPath id="bV"><path d="M145 697h4v5.629h-4zm0 0"/></clipPath><clipPath id="bW"><path d="M148 697h5v5.629h-5zm0 0"/></clipPath><clipPath id="bX"><path d="M153 697h2v5.629h-2zm0 0"/></clipPath><clipPath id="bY"><path d="M156 697h4v5.629h-4zm0 0"/></clipPath><clipPath id="bZ"><path d="M178 697h4v5.629h-4zm0 0"/></clipPath><clipPath id="ca"><path d="M181 697h5v5.629h-5zm0 0"/></clipPath><clipPath id="cb"><path d="M186 697h2v5.629h-2zm0 0"/></clipPath><clipPath id="cc"><path d="M189 697h4v5.629h-4zm0 0"/></clipPath><clipPath id="cd"><path d="M211 697h4v5.629h-4zm0 0"/></clipPath><clipPath id="ce"><path d="M215 697h4v5.629h-4zm0 0"/></clipPath><clipPath id="cf"><path d="M219 697h3v5.629h-3zm0 0"/></clipPath><clipPath id="cg"><path d="M222 697h4v5.629h-4zm0 0"/></clipPath><clipPath id="ch"><path d="M244 697h4v5.629h-4zm0 0"/></clipPath><clipPath id="ci"><path d="M248 697h4v5.629h-4zm0 0"/></clipPath><clipPath id="cj"><path d="M252 697h3v5.629h-3zm0 0"/></clipPath><clipPath id="ck"><path d="M255 697h5v5.629h-5zm0 0"/></clipPath><clipPath id="cl"><path d="M277 697h4v5.629h-4zm0 0"/></clipPath><clipPath id="cm"><path d="M281 697h4v5.629h-4zm0 0"/></clipPath><clipPath id="cn"><path d="M285 697h3v5.629h-3zm0 0"/></clipPath><clipPath id="co"><path d="M289 697h4v5.629h-4zm0 0"/></clipPath><clipPath id="cp"><path d="M310 697h4v5.629h-4zm0 0"/></clipPath><clipPath id="cq"><path d="M314 697h4v5.629h-4zm0 0"/></clipPath><clipPath id="cr"><path d="M318 697h4v5.629h-4zm0 0"/></clipPath><clipPath id="cs"><path d="M322 697h3.602v5.629H322Zm0 0"/></clipPath><clipPath id="ct"><path d="M139.91 501.734h185.692V652H139.91zm0 0"/></clipPath></defs><use xlink:href="#bT" x="508.864" y="509.923" width="100%" height="100%" style="fill:#211e1e;fill-opacity:1" transform="translate(-129.91 -492.379)"/><use xlink:href="#bT" x="515.387" y="518.925" width="100%" height="100%" style="fill:#211e1e;fill-opacity:1" transform="translate(-129.91 -492.379)"/><use xlink:href="#bT" x="518.445" y="527.927" width="100%" height="100%" style="fill:#211e1e;fill-opacity:1" transform="translate(-129.91 -492.379)"/><use xlink:href="#bT" x="509.403" y="536.929" width="100%" height="100%" style="fill:#211e1e;fill-opacity:1" transform="translate(-129.91 -492.379)"/><use xlink:href="#bT" x="524.354" y="545.931" width="100%" height="100%" style="fill:#211e1e;fill-opacity:1" transform="translate(-129.91 -492.379)"/><use xlink:href="#bT" x="507.169" y="554.933" width="100%" height="100%" style="fill:#211e1e;fill-opacity:1" transform="translate(-129.91 -492.379)"/><use xlink:href="#bT" x="514.912" y="563.935" width="100%" height="100%" style="fill:#211e1e;fill-opacity:1" transform="translate(-129.91 -492.379)"/><use xlink:href="#bT" x="517.103" y="572.937" width="100%" height="100%" style="fill:#211e1e;fill-opacity:1" transform="translate(-129.91 -492.379)"/><use xlink:href="#bT" x="405.802" y="581.939" width="100%" height="100%" style="fill:#211e1e;fill-opacity:1" transform="translate(-129.91 -492.379)"/><path style="fill:#e6e8e6;fill-opacity:1;fill-rule:nonzero;stroke:none" d="M152.336 691.113h165.906V504.078H152.336Zm0 0" transform="translate(-129.91 -492.379)"/><path style="fill:none;stroke:#fff;stroke-width:.389;stroke-linecap:butt;stroke-linejoin:round;stroke-miterlimit:10;stroke-opacity:1" d="M0 0h168.832" transform="matrix(1 0 0 -1 21.555 49.329)"/><path style="fill:none;stroke:#fff;stroke-width:.467;stroke-linecap:butt;stroke-linejoin:round;stroke-miterlimit:10;stroke-opacity:1" d="M0 0v187.035" transform="matrix(1 0 0 -1 55.77 199.113)"/><path style="fill:none;stroke:#fff;stroke-width:.466;stroke-linecap:butt;stroke-linejoin:round;stroke-miterlimit:10;stroke-opacity:1" d="M-.001 0v186.656" transform="matrix(1 0 0 -1 121.915 198.734)"/><path style="fill:none;stroke:#fff;stroke-width:.466;stroke-linecap:butt;stroke-linejoin:round;stroke-miterlimit:10;stroke-opacity:1" d="M0 0v186.183" transform="matrix(1 0 0 -1 89.114 198.734)"/><path style="fill:none;stroke:#fff;stroke-width:.468;stroke-linecap:butt;stroke-linejoin:round;stroke-miterlimit:10;stroke-opacity:1" d="M0 0v188.605" transform="matrix(1 0 0 -1 154.988 198.734)"/><path style="fill:none;stroke:#fff;stroke-width:.389;stroke-linecap:butt;stroke-linejoin:round;stroke-miterlimit:10;stroke-opacity:1" d="M0-.002h168.832" transform="matrix(1 0 0 -1 21.555 87.15)"/><path style="fill:none;stroke:#fff;stroke-width:.389;stroke-linecap:butt;stroke-linejoin:round;stroke-miterlimit:10;stroke-opacity:1" d="M0 0h168.832" transform="matrix(1 0 0 -1 21.555 124.765)"/><path style="fill:none;stroke:#fff;stroke-width:.389;stroke-linecap:butt;stroke-linejoin:round;stroke-miterlimit:10;stroke-opacity:1" d="M.001.002h168.833" transform="matrix(1 0 0 -1 22.58 161.74)"/><path style="fill:none;stroke:#aeb0b0;stroke-width:.203;stroke-linecap:butt;stroke-linejoin:round;stroke-miterlimit:10;stroke-opacity:1" d="M.002 0v-3.536" transform="matrix(1 0 0 -1 88.776 199.113)"/><path style="fill:none;stroke:#aeb0b0;stroke-width:.203;stroke-linecap:butt;stroke-linejoin:round;stroke-miterlimit:10;stroke-opacity:1" d="M0 0v-3.536" transform="matrix(1 0 0 -1 55.59 199.113)"/><path style="fill:none;stroke:#aeb0b0;stroke-width:.203;stroke-linecap:butt;stroke-linejoin:round;stroke-miterlimit:10;stroke-opacity:1" d="M.001 0v-3.536" transform="matrix(1 0 0 -1 22.405 199.113)"/><path style="fill:none;stroke:#aeb0b0;stroke-width:.203;stroke-linecap:butt;stroke-linejoin:round;stroke-miterlimit:10;stroke-opacity:1" d="M0 0v-3.536" transform="matrix(1 0 0 -1 121.96 199.113)"/><path style="fill:none;stroke:#aeb0b0;stroke-width:.203;stroke-linecap:butt;stroke-linejoin:round;stroke-miterlimit:10;stroke-opacity:1" d="M-.002 0v-3.536" transform="matrix(1 0 0 -1 155.146 199.113)"/><path style="fill:none;stroke:#aeb0b0;stroke-width:.203;stroke-linecap:butt;stroke-linejoin:round;stroke-miterlimit:10;stroke-opacity:1" d="M0 0v-3.536" transform="matrix(1 0 0 -1 188.332 199.113)"/><path style="fill:none;stroke:#fff;stroke-width:.113;stroke-linecap:butt;stroke-linejoin:round;stroke-miterlimit:10;stroke-opacity:1" d="M.002 0h103.011" transform="matrix(1 0 0 -1 35.49 198.734)"/><g clip-path="url(#bU)" transform="translate(-129.91 -492.379)"><path style="fill:#3a383a;fill-opacity:1;fill-rule:nonzero;stroke:none" d="M142.762 651.617c-.121 0-.285.008-.48.04-.61.073-1.15.32-1.552.714-.484.48-.82 1.235-.82 2.188 0 1.261.68 2.07 1.707 2.07 1.016 0 1.621-.824 1.621-1.719 0-.941-.605-1.566-1.465-1.566-.535 0-.945.254-1.175.566h-.016c.11-.804.648-1.554 1.688-1.719.183-.027.355-.043.492-.035zm-1.137 4.504c-.688 0-1.059-.598-1.066-1.398 0-.118.03-.207.066-.282.18-.359.555-.597.95-.597.605 0 1 .418 1 1.113 0 .691-.384 1.164-.942 1.164zm0 0"/></g><path style="fill:#3a383a;fill-opacity:1;fill-rule:nonzero;stroke:none" d="M145.867 651.61c-.851 0-1.504.523-1.504 1.292 0 .418.235.836.778 1.09v.024c-.59.254-.953.695-.953 1.304 0 .711.609 1.309 1.625 1.309.925 0 1.652-.563 1.652-1.414 0-.582-.375-1.012-.98-1.254v-.023c.597-.274.808-.723.808-1.133 0-.614-.48-1.196-1.418-1.196zm-.047 4.538c-.61 0-.984-.433-.96-.918 0-.46.304-.843.87-1.007.66.187 1.07.48 1.07 1.062 0 .5-.382.863-.972.863zm.024-4.066c.582 0 .812.402.812.79 0 .44-.32.741-.738.882-.559-.149-.934-.41-.926-.899 0-.418.3-.773.844-.773zM142.973 614.3a3.51 3.51 0 0 0-.477.036c-.613.074-1.152.32-1.55.719-.489.476-.825 1.23-.825 2.187 0 1.262.68 2.067 1.711 2.067 1.016 0 1.621-.82 1.621-1.715 0-.942-.605-1.57-1.465-1.57-.539 0-.949.253-1.18.57h-.015c.113-.809.648-1.555 1.687-1.719.188-.031.36-.043.493-.04zm-1.133 4.5c-.688 0-1.063-.593-1.067-1.394a.59.59 0 0 1 .067-.285c.18-.355.55-.598.945-.598.606 0 1 .418 1 1.114 0 .695-.379 1.164-.937 1.164zM144.414 619.3a4.05 4.05 0 0 0 .606-.034 2.463 2.463 0 0 0 1.41-.653c.476-.46.836-1.207.836-2.273 0-1.25-.61-2.047-1.606-2.047-.992 0-1.664.805-1.664 1.715 0 .84.559 1.496 1.434 1.496.492 0 .882-.195 1.148-.524h.024c-.09.575-.32.993-.641 1.293a1.79 1.79 0 0 1-1.016.461c-.226.032-.39.04-.531.032zm1.195-4.507c.688 0 1 .629.993 1.465a.567.567 0 0 1-.051.238c-.18.29-.524.508-.965.508-.566 0-.934-.426-.934-1.031 0-.688.395-1.18.95-1.18zM140.313 577.059v.543h2.375v.015l-2.098 4.293h.672l2.113-4.422v-.43zM145.605 581.992c1.063 0 1.68-.91 1.68-2.562 0-1.543-.59-2.453-1.601-2.453-.989 0-1.696.886-1.696 2.523.012 1.602.664 2.492 1.61 2.492zm.024-.508c-.606 0-.992-.761-.977-2.023 0-1.219.387-1.977.985-1.977.687 0 .984.782.984 1.977 0 1.238-.32 2.023-.984 2.023zM140.176 539.738v.547h2.375v.016l-2.098 4.293h.672l2.113-4.422v-.434zM145.344 544.59h.633v-4.852h-.559l-1.063.57.13.5.843-.456h.016zM140.297 502.46v.548h2.375v.015l-2.098 4.293h.672l2.113-4.421v-.434zM147.137 507.316v-.546h-2.172v-.016l.379-.356c1.023-.988 1.672-1.71 1.672-2.609 0-.691-.438-1.41-1.477-1.41-.562 0-1.047.219-1.375.492l.211.465c.223-.188.59-.41 1.031-.41.723 0 .953.453.953.945 0 .734-.566 1.36-1.804 2.54l-.516.5v.405zm0 0" transform="translate(-129.91 -492.379)"/><g clip-path="url(#bV)" transform="translate(-129.91 -492.379)"><path style="fill:#3a383a;fill-opacity:1;fill-rule:nonzero;stroke:none" d="M148.172 702.547V702H146v-.016l.379-.355c1.023-.988 1.672-1.711 1.672-2.61 0-.69-.438-1.41-1.477-1.41-.562 0-1.047.215-1.375.493l.211.464c.223-.187.59-.41 1.031-.41.723 0 .954.453.954.946 0 .734-.567 1.359-1.805 2.539l-.516.5v.406zm0 0"/></g><g clip-path="url(#bW)" transform="translate(-129.91 -492.379)"><path style="fill:#3a383a;fill-opacity:1;fill-rule:nonzero;stroke:none" d="M150.457 702.629c1.059 0 1.68-.914 1.68-2.563 0-1.546-.59-2.457-1.606-2.457-.984 0-1.695.891-1.695 2.524.016 1.605.664 2.496 1.613 2.496zm.02-.508c-.602 0-.993-.762-.977-2.023 0-1.22.387-1.98.984-1.98.688 0 .989.784.989 1.98 0 1.238-.32 2.023-.989 2.023zm0 0"/></g><g clip-path="url(#bX)" transform="translate(-129.91 -492.379)"><path style="fill:#3a383a;fill-opacity:1;fill-rule:nonzero;stroke:none" d="M154.16 702.547h.633v-4.856h-.559l-1.062.57.129.5.844-.456h.015zm0 0"/></g><g clip-path="url(#bY)" transform="translate(-129.91 -492.379)"><path style="fill:#3a383a;fill-opacity:1;fill-rule:nonzero;stroke:none" d="M159.46 697.691h-2.323l-.313 2.329c.18-.028.395-.051.68-.051.96 0 1.387.449 1.387 1.07.008.656-.528 1.059-1.141 1.059a2.17 2.17 0 0 1-1.047-.27l-.164.5c.242.149.68.3 1.211.3 1.05 0 1.809-.71 1.809-1.66 0-.613-.317-1.034-.696-1.245-.3-.18-.664-.262-1.047-.262-.18 0-.28.016-.394.031l.187-1.246h1.852zm0 0"/></g><g clip-path="url(#bZ)" transform="translate(-129.91 -492.379)"><path style="fill:#3a383a;fill-opacity:1;fill-rule:nonzero;stroke:none" d="M181.16 702.547V702h-2.176v-.016l.383-.355c1.024-.988 1.672-1.711 1.672-2.61 0-.69-.441-1.41-1.48-1.41-.559 0-1.043.215-1.371.493l.207.464c.226-.187.59-.41 1.03-.41.723 0 .958.453.958.946 0 .734-.57 1.359-1.809 2.539l-.515.5v.406zm0 0"/></g><g clip-path="url(#ca)" transform="translate(-129.91 -492.379)"><path style="fill:#3a383a;fill-opacity:1;fill-rule:nonzero;stroke:none" d="M183.441 702.629c1.063 0 1.68-.914 1.68-2.563 0-1.546-.59-2.457-1.601-2.457-.989 0-1.696.891-1.696 2.524.012 1.605.664 2.496 1.61 2.496zm.024-.508c-.606 0-.992-.762-.977-2.023 0-1.22.387-1.98.985-1.98.687 0 .984.784.984 1.98 0 1.238-.32 2.023-.984 2.023zm0 0"/></g><g clip-path="url(#cb)" transform="translate(-129.91 -492.379)"><path style="fill:#3a383a;fill-opacity:1;fill-rule:nonzero;stroke:none" d="M187.145 702.547h.636v-4.856h-.558l-1.063.57.125.5.844-.456h.016zm0 0"/></g><g clip-path="url(#cc)" transform="translate(-129.91 -492.379)"><path style="fill:#3a383a;fill-opacity:1;fill-rule:nonzero;stroke:none" d="M192.32 697.617c-.12 0-.285.008-.48.04-.61.073-1.149.32-1.55.714-.485.48-.821 1.235-.821 2.188 0 1.261.68 2.07 1.707 2.07 1.015 0 1.62-.824 1.62-1.719 0-.941-.605-1.566-1.464-1.566-.535 0-.945.25-1.176.566h-.015c.109-.804.648-1.554 1.687-1.719.184-.027.356-.043.492-.035zm-1.136 4.504c-.688 0-1.059-.598-1.067-1.398 0-.118.031-.207.067-.282.18-.359.554-.597.949-.597.605 0 1 .418 1 1.11 0 .694-.383 1.167-.942 1.167zm0 0"/></g><g clip-path="url(#cd)" transform="translate(-129.91 -492.379)"><path style="fill:#3a383a;fill-opacity:1;fill-rule:nonzero;stroke:none" d="M214.398 702.547V702h-2.171v-.016l.378-.355c1.024-.988 1.676-1.711 1.676-2.61 0-.69-.441-1.41-1.48-1.41-.559 0-1.043.215-1.371.493l.207.464c.222-.187.59-.41 1.031-.41.723 0 .953.453.953.946 0 .734-.566 1.359-1.805 2.539l-.515.5v.406zm0 0"/></g><g clip-path="url(#ce)" transform="translate(-129.91 -492.379)"><path style="fill:#3a383a;fill-opacity:1;fill-rule:nonzero;stroke:none" d="M216.684 702.629c1.058 0 1.68-.914 1.68-2.563 0-1.546-.59-2.457-1.606-2.457-.985 0-1.696.891-1.696 2.524.016 1.605.665 2.496 1.614 2.496zm.023-.508c-.605 0-.992-.762-.98-2.023 0-1.22.39-1.98.988-1.98.687 0 .984.784.984 1.98 0 1.238-.32 2.023-.984 2.023zm0 0"/></g><g clip-path="url(#cf)" transform="translate(-129.91 -492.379)"><path style="fill:#3a383a;fill-opacity:1;fill-rule:nonzero;stroke:none" d="M220.387 702.547h.633v-4.856h-.56l-1.058.57.125.5.844-.456h.016zm0 0"/></g><g clip-path="url(#cg)" transform="translate(-129.91 -492.379)"><path style="fill:#3a383a;fill-opacity:1;fill-rule:nonzero;stroke:none" d="M222.879 697.691v.547h2.375v.016l-2.098 4.293h.672l2.113-4.422v-.434zm0 0"/></g><g clip-path="url(#ch)" transform="translate(-129.91 -492.379)"><path style="fill:#3a383a;fill-opacity:1;fill-rule:nonzero;stroke:none" d="M247.543 702.547V702h-2.172v-.016l.379-.355c1.023-.988 1.672-1.711 1.672-2.61 0-.69-.442-1.41-1.477-1.41-.562 0-1.047.215-1.375.493l.211.464c.223-.187.59-.41 1.028-.41.726 0 .957.453.957.946 0 .734-.567 1.359-1.805 2.539l-.516.5v.406zm0 0"/></g><g clip-path="url(#ci)" transform="translate(-129.91 -492.379)"><path style="fill:#3a383a;fill-opacity:1;fill-rule:nonzero;stroke:none" d="M249.828 702.629c1.059 0 1.68-.914 1.68-2.563 0-1.546-.59-2.457-1.606-2.457-.988 0-1.695.891-1.695 2.524.016 1.605.664 2.496 1.613 2.496zm.02-.508c-.602 0-.993-.762-.977-2.023 0-1.22.387-1.98.984-1.98.688 0 .989.784.989 1.98 0 1.238-.32 2.023-.989 2.023zm0 0"/></g><g clip-path="url(#cj)" transform="translate(-129.91 -492.379)"><path style="fill:#3a383a;fill-opacity:1;fill-rule:nonzero;stroke:none" d="M253.531 702.547h.633v-4.856h-.559l-1.062.57.129.5.844-.456h.015zm0 0"/></g><g clip-path="url(#ck)" transform="translate(-129.91 -492.379)"><path style="fill:#3a383a;fill-opacity:1;fill-rule:nonzero;stroke:none" d="M257.555 697.61c-.852 0-1.5.523-1.5 1.292 0 .418.23.836.773 1.09v.024c-.59.254-.953.695-.953 1.304 0 .711.61 1.309 1.629 1.309.922 0 1.648-.563 1.648-1.414 0-.582-.375-1.016-.976-1.254v-.023c.594-.274.804-.723.804-1.133 0-.614-.476-1.196-1.417-1.196zm-.047 4.538c-.61 0-.985-.433-.961-.918 0-.46.305-.843.875-1.007.656.187 1.066.48 1.066 1.058 0 .5-.383.867-.972.867zm.023-4.066c.582 0 .817.402.817.79 0 .44-.325.737-.743.882-.558-.149-.933-.41-.925-.899 0-.418.3-.773.843-.773zm0 0"/></g><g clip-path="url(#cl)" transform="translate(-129.91 -492.379)"><path style="fill:#3a383a;fill-opacity:1;fill-rule:nonzero;stroke:none" d="M280.754 702.547V702h-2.172v-.016l.379-.355c1.023-.988 1.672-1.711 1.672-2.61 0-.69-.442-1.41-1.477-1.41-.562 0-1.047.215-1.375.493l.211.464c.223-.187.59-.41 1.028-.41.726 0 .957.453.957.946 0 .734-.567 1.359-1.805 2.539l-.52.5v.406zm0 0"/></g><g clip-path="url(#cm)" transform="translate(-129.91 -492.379)"><path style="fill:#3a383a;fill-opacity:1;fill-rule:nonzero;stroke:none" d="M283.04 702.629c1.058 0 1.679-.914 1.679-2.563 0-1.546-.59-2.457-1.606-2.457-.988 0-1.695.891-1.695 2.524.016 1.605.664 2.496 1.613 2.496zm.019-.508c-.602 0-.993-.762-.977-2.023 0-1.22.387-1.98.984-1.98.688 0 .989.784.989 1.98 0 1.238-.32 2.023-.989 2.023zm0 0"/></g><g clip-path="url(#cn)" transform="translate(-129.91 -492.379)"><path style="fill:#3a383a;fill-opacity:1;fill-rule:nonzero;stroke:none" d="M286.742 702.547h.633v-4.856h-.559l-1.062.57.129.5.844-.456h.015zm0 0"/></g><g clip-path="url(#co)" transform="translate(-129.91 -492.379)"><path style="fill:#3a383a;fill-opacity:1;fill-rule:nonzero;stroke:none" d="M289.523 702.621c.153.008.368-.008.606-.039a2.494 2.494 0 0 0 1.414-.648c.477-.465.836-1.211.836-2.278 0-1.246-.613-2.047-1.606-2.047-.992 0-1.668.809-1.668 1.72 0 .835.563 1.491 1.434 1.491.496 0 .883-.195 1.152-.523h.024c-.09.574-.324.992-.645 1.293a1.753 1.753 0 0 1-1.015.46c-.223.032-.387.04-.532.032zm1.196-4.512c.687 0 1 .63.996 1.465 0 .106-.024.18-.055.239-.18.292-.523.507-.96.507-.571 0-.934-.425-.934-1.03 0-.685.394-1.18.945-1.18zm0 0"/></g><g clip-path="url(#cp)" transform="translate(-129.91 -492.379)"><path style="fill:#3a383a;fill-opacity:1;fill-rule:nonzero;stroke:none" d="M313.98 702.547V702h-2.171v-.016l.379-.355c1.023-.988 1.671-1.711 1.671-2.61 0-.69-.441-1.41-1.48-1.41-.559 0-1.043.215-1.371.493l.21.464c.223-.187.59-.41 1.028-.41.727 0 .957.453.957.946 0 .734-.566 1.359-1.808 2.539l-.516.5v.406zm0 0"/></g><g clip-path="url(#cq)" transform="translate(-129.91 -492.379)"><path style="fill:#3a383a;fill-opacity:1;fill-rule:nonzero;stroke:none" d="M316.262 702.629c1.062 0 1.68-.914 1.68-2.563 0-1.546-.59-2.457-1.602-2.457-.988 0-1.695.891-1.695 2.524.015 1.605.664 2.496 1.609 2.496zm.023-.508c-.605 0-.992-.762-.976-2.023 0-1.22.386-1.98.984-1.98.687 0 .984.784.984 1.98 0 1.238-.32 2.023-.984 2.023zm0 0"/></g><g clip-path="url(#cr)" transform="translate(-129.91 -492.379)"><path style="fill:#3a383a;fill-opacity:1;fill-rule:nonzero;stroke:none" d="M321.637 702.547V702h-2.172v-.016l.383-.355c1.023-.988 1.672-1.711 1.672-2.61 0-.69-.442-1.41-1.48-1.41-.56 0-1.044.215-1.372.493l.207.464c.227-.187.59-.41 1.031-.41.723 0 .957.453.957.946 0 .734-.57 1.359-1.808 2.539l-.516.5v.406zm0 0"/></g><g clip-path="url(#cs)" transform="translate(-129.91 -492.379)"><path style="fill:#3a383a;fill-opacity:1;fill-rule:nonzero;stroke:none" d="M323.922 702.629c1.062 0 1.68-.914 1.68-2.563 0-1.546-.59-2.457-1.602-2.457-.988 0-1.695.891-1.695 2.524.011 1.605.664 2.496 1.61 2.496zm.023-.508c-.605 0-.992-.762-.976-2.023 0-1.22.386-1.98.984-1.98.688 0 .984.784.984 1.98 0 1.238-.32 2.023-.984 2.023zm0 0"/></g><path style="fill:#fff;fill-opacity:1;fill-rule:nonzero;stroke:none" d="m151.625 680.824.074-5.25 7.836 2.434" transform="translate(-129.91 -492.379)"/><path style="fill:#e6e8e6;fill-opacity:1;fill-rule:nonzero;stroke:none" d="m152.965 685.402-.059-4.98-7.691 2.324" transform="translate(-129.91 -492.379)"/><path style="fill:none;stroke:#787a7f;stroke-width:.314;stroke-linecap:butt;stroke-linejoin:round;stroke-miterlimit:10;stroke-opacity:1" d="m.001 0 .02-157.93v-13.882l7.336-2.203-14.801-4.824 7.258-2.32-.024-5.876" transform="matrix(1 0 0 -1 22.647 11.7)"/><g clip-path="url(#ct)" transform="translate(-129.91 -492.379)"><path style="fill:none;stroke:#9c1e1e;stroke-width:1.844;stroke-linecap:round;stroke-linejoin:miter;stroke-miterlimit:10;stroke-dasharray:.054,3.535;stroke-opacity:1" d="m.002.001 32.875 28.922 32.875 28.512L98.627 77.68l32.875 21.898 32.875-1.238" transform="matrix(1 0 0 -1 153.272 625.286)"/></g><use xlink:href="#cu" x="524.428" y="57.284" width="100%" height="100%" style="fill:#63709e;fill-opacity:1" transform="translate(-129.91 -492.379)"/></svg>